<?xml version="1.0" encoding="utf-8"?>
<svg version="1.1" id="Wok" xmlns:dc="http://purl.org/dc/elements/1.1/" xmlns:cc="http://creativecommons.org/ns#" xmlns:rdf="http://www.w3.org/1999/02/22-rdf-syntax-ns#" xmlns:svg="http://www.w3.org/2000/svg" xmlns="http://www.w3.org/2000/svg" xmlns:xlink="http://www.w3.org/1999/xlink" x="0px" y="0px" viewBox="0 0 500 500" style="enable-background:new 0 0 500 500;" xml:space="preserve">
     <title
     id="title">Ginger</title>
    <metadata
     id="license">
        <rdf:RDF>
            <cc:Work rdf:about="">
            <dc:format>image/svg+xml</dc:format>
            <dc:type rdf:resource="http://purl.org/dc/dcmitype/StillImage" />
            <dc:title>Ginger</dc:title>
            <cc:license rdf:resource="http://www.apache.org/licenses/LICENSE-2.0" />
            <dc:date>2016</dc:date>
            <dc:creator>
                <cc:Agent>
                    <dc:title>IBM, Corp.</dc:title>
                </cc:Agent>
            </dc:creator>
            <dc:rights>
                <cc:Agent>
                    <dc:title>IBM, Corp.</dc:title>
                </cc:Agent>
            </dc:rights>
            <dc:publisher>
                <cc:Agent>
                    <dc:title>IBM, Corp.</dc:title>
                </cc:Agent>
            </dc:publisher>
            <dc:contributor>
                <cc:Agent>
                    <dc:title>https://github.com/kimchi-project/ginger</dc:title>
                </cc:Agent>
            </dc:contributor>
            <dc:description>Ginger is an open source host management plugin to Wok, Web Server Originated from Kimchi, that provides an intuitive web panel with common tools for configuring and operating Linux systems.</dc:description>
      </cc:Work>
    </rdf:RDF>
  </metadata>
<style type="text/css">
    .st1{fill:#00578C;}
</style>
<g>
    <g>
        <polygon class="st1" points="306.6,432.2 317.4,459.5 328.3,459.5 339.1,432.2 339.1,398.1 306.6,398.1        "/>
        <polygon class="st1" points="244.6,432.2 255.3,459.5 266.3,459.5 277,432.2 277,398.1 244.6,398.1        "/>
        <polygon class="st1" points="182.6,432.2 193.3,459.5 204.2,459.5 215,432.2 215,398.1 182.6,398.1        "/>
        <path class="st1" d="M159.1,374.7v48.7h15.2v-25.4c0-4.6,3.7-8.3,8.3-8.3H215c4.6,0,8.3,3.7,8.3,8.3v25.4h13.1v-25.4
            c0-4.6,3.7-8.3,8.3-8.3H277c4.6,0,8.3,3.7,8.3,8.3v25.4h13.1v-25.4c0-4.6,3.7-8.3,8.3-8.3h32.4c4.6,0,8.3,3.7,8.3,8.3v25.4h15.2
            v-48.7H159.1z"/>
        <path class="st1" d="M304,354.1c-4.2,0-7.4-4-6.3-8.1c7.1-26.3,9.6-38.7,10.8-64.9c-0.1-5.5,8.8-30.9,7.8-43.1
            c-1.7-23.1-19.1-40.7-19.1-40.7s-14.5,20-12.7,43.1c0.8,11,7.5,23.9,11,34c0.3,1,0.5,2.1,0.5,3.1c-0.4,27-2.6,38.1-8.8,64.4
            c-1.6,6.8-6.8,12.1-13.8,12.1h-26.8c-4.7,0-8.8-3.3-9.8-7.9c-14.3-66-1.8-169.7,5.9-254.5c0.2,0.1,0.4,0.3,0.6,0.4
            c0.9,0.6,1.8,1.2,2.8,1.9c0.9,0.8,2,1.4,3,2.3c2,1.6,4.1,3.5,6.3,5.5c2.1,2.1,4.4,4.2,6.5,6.6c1.1,1.2,2.2,2.4,3.3,3.6
            c1.1,1.3,2.2,2.5,3.3,3.8c2.2,2.6,4.3,5.3,6.3,8.1c2.1,2.8,4,5.6,5.9,8.4c0.9,1.4,1.8,2.8,2.8,4.2c0.9,1.4,1.7,2.8,2.6,4.2
            c1.7,2.8,3.2,5.5,4.6,8.2c1.4,2.7,2.7,5.2,3.8,7.6c1.1,2.4,2.1,4.7,2.9,6.8c0.4,1,0.7,2,1.1,2.9c0.3,0.9,0.6,1.8,0.9,2.5
            c0.6,1.6,0.9,2.8,1.2,3.7c0.3,0.9,0.5,1.3,0.5,1.3s0.2-0.5,0.5-1.3c0.2-0.9,0.8-2.2,1.1-3.8c0.2-0.8,0.4-1.8,0.5-2.8
            c0.2-1,0.3-2.1,0.4-3.4c0.1-1.2,0.1-2.5,0.2-3.8c0-1.4-0.1-2.8-0.1-4.3c-0.1-1.5-0.3-3-0.5-4.6c-0.3-1.6-0.6-3.2-0.9-4.9
            c-0.8-3.3-1.8-6.8-3.2-10.2c-1.3-3.5-2.9-7-4.9-10.4c-1.9-3.4-4.1-6.7-6.4-9.9c-2.4-3.1-4.9-6.2-7.7-9c-2.7-2.8-5.6-5.4-8.6-7.6
            c-2.9-2.3-6-4.2-9.1-5.9c-3.1-1.6-6.1-2.9-8.9-3.9c-1.4-0.5-2.9-0.8-4.2-1.2c-1.4-0.3-2.6-0.5-3.9-0.7c-0.7-0.1-1.5-0.1-2.1-0.2
            c2.5-27.4,4.4-44.8,4.4-44.8l-10.6,12.5c0,0-5.7,38-11.4,94.6c-0.3-0.2-0.6-0.3-0.9-0.5c-0.3-0.3-0.7-0.6-1.1-0.9
            c-0.7-0.7-1.4-1.2-2.2-1.9c-0.8-0.8-1.7-1.6-2.6-2.4c-0.8-0.9-1.7-1.8-2.7-2.8c-0.5-0.4-0.9-1-1.4-1.5c-0.4-0.5-0.9-1.1-1.4-1.6
            c-0.9-1.1-1.9-2.3-2.9-3.5c-1-1.2-1.9-2.6-3-3.8c-1-1.4-2.1-2.7-3.2-4.1c-1.1-1.5-2.3-2.7-3.5-4.2c-1.2-1.4-2.6-2.8-3.9-4.3
            c-0.7-0.7-1.4-1.4-2.1-2.2c-0.7-0.8-1.4-1.5-2.1-2.3c-2.9-3-5.7-6.3-8.2-9.8c-1.3-1.8-2.5-3.6-3.7-5.4c-1.2-1.8-2.4-3.7-3.6-5.5
            c-2.3-3.7-4.7-7.3-6.8-10.9c-2.2-3.6-4.1-7.1-6.1-10.5c-1.9-3.4-3.7-6.6-5.3-9.6c-1.6-3-3-5.8-4.3-8.2c-1.3-2.5-2.4-4.6-3.3-6.4
            c-1.8-3.6-2.8-5.6-2.8-5.6l-2.4,0.7c0,0,0.3,2.3,1,6.3c0.3,2,0.8,4.4,1.3,7.2c0.6,2.8,1.2,5.9,2,9.2c0.8,3.4,1.7,7,2.8,10.9
            c1,3.9,2.3,7.9,3.7,12c1.3,4.2,2.8,8.5,4.5,12.7c1.7,4.3,3.6,8.6,5.6,12.9c2.1,4.3,4,8.7,6.2,13c2.1,4.3,4.6,8.5,7.6,12.2
            c0.7,0.9,1.5,1.8,2.3,2.7c0.8,0.9,1.6,1.7,2.5,2.5c1.7,1.6,3.6,3,5.3,4.3c1.9,1.3,3.8,2.5,5.6,3.6c2,1,3.8,2,5.8,2.7
            c2,0.7,3.8,1.4,5.6,1.8c1.9,0.4,3.6,0.8,5.3,0.9c1.7,0.1,3.3,0.1,4.7,0.1c1.5-0.1,3-0.3,4.2-0.5c0.6-0.1,1.2-0.2,1.7-0.3
            c0.3-0.1,0.5-0.2,0.8-0.3c-1.5,15.5-3.1,23.4-4.5,40.3c-1-0.2-2.1-0.4-3.3-0.5c-2.6-0.3-5.8-0.4-9.5-0.1c-0.9,0-1.9,0.2-2.8,0.4
            c-1,0.2-2,0.3-3,0.6c-2,0.5-4.2,1.1-6.4,1.9c-2.2,0.7-4.4,1.8-6.7,2.8c-1.1,0.5-2.2,1.2-3.3,1.8c-1.1,0.6-2.2,1.3-3.3,2.1
            c-4.4,2.9-8.8,6.5-12.8,10.5c-2.1,2-3.9,4.2-5.8,6.4c-1.8,2.3-3.6,4.6-5.2,7.1c-3.3,4.9-6.3,10.1-8.8,15.4
            c-2.5,5.3-4.6,10.9-6.3,16.4c-1.7,5.5-3,11-3.9,16.4c-0.5,2.7-0.8,5.3-1.1,7.9c-0.2,2.6-0.5,5.1-0.6,7.6c0,2.5-0.2,4.9-0.1,7.2
            c0.1,2.3,0.1,4.6,0.2,6.7c0.2,2.2,0.3,4.2,0.5,6.1c0.3,1.9,0.5,3.8,0.8,5.5c0.5,3.4,1.3,6.4,1.9,8.9c0.6,2.4,1.3,4.3,1.7,5.6
            c0.5,1.3,0.7,2,0.7,2s1.1-2.7,2.6-7.4c0.9-2.3,1.7-5.2,2.8-8.4c1-3.2,2.2-6.7,3.4-10.6c1.3-3.8,2.6-7.9,4-12.3
            c0.7-2.1,1.5-4.3,2.2-6.6c0.9-2.2,1.6-4.5,2.4-6.8c1.7-4.6,3.4-9.2,5.3-13.9c1.9-4.6,3.8-9.3,6-13.8c1-2.3,2.2-4.5,3.3-6.7
            c1.2-2.2,2.3-4.4,3.5-6.5c2.4-4.3,4.8-8.3,7.4-12.1c1.2-1.9,2.6-3.7,3.9-5.5c0.7-0.9,1.3-1.7,2-2.6c0.7-0.9,1.4-1.6,2-2.4
            c2.7-3.2,5.5-6.1,8.3-8.5c2.8-2.5,5.5-4.5,8.2-6.3c2.6-1.7,5.1-3.1,7.2-4.1c0.9-0.4,1.7-0.8,2.4-1.1c-6,73.9-9.5,103.3-1.2,146
            c0.9,4.9-2.8,9.4-7.8,9.4h-45.1v12.4h189.3v-12.4H304z"/>
    </g>
</g>
</svg>